<svg id="Layer_1" data-name="Layer 1" xmlns="http://www.w3.org/2000/svg" viewBox="0 0 422.7 240.01">
  <g>
    <path d="M501.35,462.06v57.53a119.68,119.68,0,0,0,74.82-34.77l-40.37-40.37A62.7,62.7,0,0,1,501.35,462.06Z" transform="translate(-188.65 -280)" style="fill: #363f44"/>
    <path d="M607.9,371.43a119.93,119.93,0,0,0-201.09-56.51,129.76,129.76,0,0,1,28.58,56.44,62.84,62.84,0,0,1,111.93.07H435.42c2.07,9.2,2.38,18.79,3.17,28.57,1.58,19.67,6.75,28.57,8.3,28.57h161a120.17,120.17,0,0,0,0-57.14Z" transform="translate(-188.65 -280)" style="fill: #363f44"/>
    <path d="M435.36,428.57A68.56,68.56,0,0,1,428.58,400h0a120,120,0,1,0-239.94,0c0,3.37.15,6.7.42,10a119.91,119.91,0,0,0,204.11,75.07A130.44,130.44,0,0,1,365.08,431c-.19-.77-.36-1.55-.53-2.33A62.88,62.88,0,1,1,371.43,400h0A120,120,0,0,0,491.35,520V462.86A62.84,62.84,0,0,1,435.36,428.57Z" transform="translate(-188.65 -280)" style="fill: #f3402f"/>
  </g>
</svg>
