<svg id="Layer_1" data-name="Layer 1" xmlns="http://www.w3.org/2000/svg" viewBox="0 0 532 532"><defs><style>.cls-1,.cls-2,.cls-4,.cls-5{fill:none;}.cls-1{stroke:#cedff1;}.cls-1,.cls-4,.cls-5{stroke-linecap:round;}.cls-1,.cls-2,.cls-3,.cls-4{stroke-miterlimit:10;}.cls-1,.cls-2,.cls-3,.cls-4,.cls-5{stroke-width:10px;}.cls-2,.cls-3,.cls-4,.cls-5{stroke:#0860b8;}.cls-3{fill:#cedff1;}.cls-5{stroke-linejoin:round;}</style></defs><title>automation-icon</title><path class="cls-1" d="M536.59,292.49A188.56,188.56,0,0,1,549,360c0,104.38-84.62,189-189,189a188.69,188.69,0,0,1-63-10.75" transform="translate(-94 -94)"/><path class="cls-1" d="M183.19,426.93A188.57,188.57,0,0,1,171,360c0-104.38,84.62-189,189-189a188.48,188.48,0,0,1,70.5,13.59" transform="translate(-94 -94)"/><path class="cls-2" d="M530.81,441a189.76,189.76,0,0,1-90.21,90" transform="translate(-94 -94)"/><path class="cls-2" d="M171,360c0-104.38,84.62-189,189-189" transform="translate(-94 -94)"/><path class="cls-3" d="M333.88,480.38H318.94a94.56,94.56,0,0,0-17.18-41.45l10.57-10.57a8.12,8.12,0,0,0,0-11.49l-9.19-9.19a8.12,8.12,0,0,0-11.49,0l-10.57,10.57a94.56,94.56,0,0,0-41.45-17.18V386.13A8.12,8.12,0,0,0,231.5,378h-13a8.12,8.12,0,0,0-8.12,8.13v14.93a94.56,94.56,0,0,0-41.45,17.18l-10.57-10.57a8.12,8.12,0,0,0-11.49,0l-9.19,9.19a8.12,8.12,0,0,0,0,11.49l10.57,10.57a94.56,94.56,0,0,0-17.18,41.45H116.13A8.12,8.12,0,0,0,108,488.5v13a8.13,8.13,0,0,0,8.13,8.13h14.93a94.56,94.56,0,0,0,17.18,41.45l-10.57,10.57a8.12,8.12,0,0,0,0,11.49l9.19,9.19a8.12,8.12,0,0,0,11.49,0l10.57-10.57a94.56,94.56,0,0,0,41.45,17.18v14.93A8.13,8.13,0,0,0,218.5,612h13a8.13,8.13,0,0,0,8.13-8.12V588.94a94.56,94.56,0,0,0,41.45-17.18l10.57,10.57a8.12,8.12,0,0,0,11.49,0l9.19-9.19a8.12,8.12,0,0,0,0-11.49l-10.57-10.57a94.56,94.56,0,0,0,17.18-41.45h14.93A8.13,8.13,0,0,0,342,501.5v-13A8.12,8.12,0,0,0,333.88,480.38ZM225,553.5A58.5,58.5,0,1,1,283.5,495,58.5,58.5,0,0,1,225,553.5Z" transform="translate(-94 -94)"/><circle class="cls-3" cx="131" cy="401" r="29.25"/><path class="cls-3" d="M603.88,210.38H588.94a94.56,94.56,0,0,0-17.18-41.45l10.57-10.57a8.12,8.12,0,0,0,0-11.49l-9.19-9.19a8.12,8.12,0,0,0-11.49,0l-10.57,10.57a94.56,94.56,0,0,0-41.45-17.18V116.13A8.12,8.12,0,0,0,501.5,108h-13a8.12,8.12,0,0,0-8.12,8.13v14.93a94.56,94.56,0,0,0-41.45,17.18l-10.57-10.57a8.12,8.12,0,0,0-11.49,0l-9.19,9.19a8.12,8.12,0,0,0,0,11.49l10.57,10.57a94.56,94.56,0,0,0-17.18,41.45H386.13A8.12,8.12,0,0,0,378,218.5v13a8.13,8.13,0,0,0,8.13,8.13h14.93a94.56,94.56,0,0,0,17.18,41.45l-10.57,10.57a8.12,8.12,0,0,0,0,11.49l9.19,9.19a8.12,8.12,0,0,0,11.49,0l10.57-10.57a94.56,94.56,0,0,0,41.45,17.18v14.93A8.13,8.13,0,0,0,488.5,342h13a8.13,8.13,0,0,0,8.13-8.12V318.94a94.56,94.56,0,0,0,41.45-17.18l10.57,10.57a8.12,8.12,0,0,0,11.49,0l9.19-9.19a8.12,8.12,0,0,0,0-11.49l-10.57-10.57a94.56,94.56,0,0,0,17.18-41.45h14.93A8.13,8.13,0,0,0,612,231.5v-13A8.12,8.12,0,0,0,603.88,210.38ZM495,283.5A58.5,58.5,0,1,1,553.5,225,58.5,58.5,0,0,1,495,283.5Z" transform="translate(-94 -94)"/><circle class="cls-3" cx="401" cy="131" r="29.25"/><path class="cls-4" d="M603,360c0,134.21-108.79,243-243,243" transform="translate(-94 -94)"/><path class="cls-4" d="M117,360c0-134.21,108.79-243,243-243" transform="translate(-94 -94)"/><polyline class="cls-5" points="5 248 23 266 41 248"/><polyline class="cls-5" points="527 284 509 266 491 284"/><polyline class="cls-5" points="248 41 266 23 248 5"/><polyline class="cls-5" points="284 491 266 509 284 527"/></svg>